<svg width="1017" height="145" viewBox="0 0 1017 145" fill="none" xmlns="http://www.w3.org/2000/svg">
<path d="M0.0443248 142V0.668097H105.355V27.7903H31.8281V55.3362H96.0314V80.3395H31.8281V114.878H106.626V142H0.0443248ZM181.271 102.8L210.513 104.283C206.275 130.134 188.476 144.755 161.354 144.755C130.206 144.755 110.5 123.989 110.5 91.1459C110.5 57.4551 129.994 36.9016 162.413 36.9016C189.111 36.9016 207.334 52.1578 209.241 76.5254H180.636C178.941 66.9903 171.948 61.2692 161.989 61.2692C148.216 61.2692 140.8 71.6519 140.8 90.2984C140.8 109.792 148.216 120.387 162.201 120.387C173.008 120.387 178.941 114.878 181.271 102.8ZM211.388 90.7222C211.388 59.3622 233.849 36.9016 265.633 36.9016C298.052 36.9016 320.089 59.1503 320.089 91.5697C320.089 122.506 297.205 144.755 265.633 144.755C233.849 144.755 211.388 122.506 211.388 90.7222ZM241.689 90.7222C241.689 109.792 250.376 120.811 265.633 120.811C280.889 120.811 289.788 109.792 289.788 91.3578C289.788 71.6519 281.101 60.8454 265.633 60.8454C250.376 60.8454 241.689 71.8638 241.689 90.7222ZM330.438 142V0.668097H434.265V27.7903H362.222V59.3622H425.366V85.4249H362.222V142H330.438ZM499.417 142V130.77C492.213 140.941 484.797 144.755 472.295 144.755C461.7 144.755 451.953 140.941 445.173 134.16C438.18 127.168 435.426 118.48 435.426 103.859V39.6562H465.515V97.2908C465.515 107.25 465.938 109.792 468.693 113.395C471.448 117.209 476.321 119.328 481.83 119.328C487.339 119.328 492.001 117.209 494.756 113.395C497.51 109.792 497.934 107.462 497.934 97.2908V39.6562H528.023V142H499.417ZM542.108 142V39.6562H571.35V49.6151C582.58 39.4443 588.725 36.6897 599.319 36.6897C621.568 36.6897 635.129 51.5222 635.129 75.6778V142H605.04V86.2724C605.04 75.8897 604.405 71.8638 601.862 68.0497C599.319 64.2357 594.87 62.1168 589.572 62.1168C584.487 62.1168 579.825 64.0238 576.647 67.6259C573.257 71.44 572.197 75.6778 572.197 84.5773V142H542.108ZM718.257 142V130.982C710.629 140.941 702.577 144.755 690.075 144.755C662.953 144.755 644.942 123.142 644.942 90.9341C644.942 58.3027 663.165 36.6897 690.711 36.6897C701.729 36.6897 709.781 39.8681 716.986 47.2843V0.668097H747.074V142H718.257ZM696.22 120.387C709.146 120.387 718.045 108.521 718.045 91.1459C718.045 72.9232 709.357 61.0573 696.22 61.0573C683.295 61.0573 674.607 72.9232 674.607 90.7222C674.607 108.521 683.295 120.387 696.22 120.387ZM762.549 142V0.668097H807.258L825.269 74.6184C828.024 85.6368 830.354 97.2908 832.049 106.614C832.473 104.283 832.897 102.588 832.897 102.164L835.228 93.053L837.347 83.5178C838.406 79.0681 839.466 74.6184 839.466 74.1946L857.9 0.668097H902.186V142H873.156V68.2616L873.368 54.7005C873.368 51.9459 873.368 48.7676 873.792 43.6822L869.342 59.7859C868.283 63.6 867.435 66.3546 867.223 66.5665L847.941 142H816.581L797.087 66.7784L795.18 58.9384L793.485 53.0054C792.426 48.5557 792.214 47.7081 790.942 43.6822C791.366 48.7676 791.366 52.3697 791.366 54.7005L791.578 68.2616V142H762.549ZM984.757 112.123H1015.27C1009.55 132.041 990.478 144.755 966.111 144.755C934.539 144.755 913.562 123.142 913.562 90.9341C913.562 59.1503 935.175 36.9016 965.899 36.9016C987.512 36.9016 1003.83 47.7081 1011.46 66.9903C1015.06 75.8897 1016.54 85.4249 1016.54 99.6216H943.862C945.769 113.606 954.033 121.235 966.958 121.235C975.01 121.235 980.519 118.48 984.757 112.123ZM944.074 78.4324H985.605C984.334 66.5665 977.341 59.7859 965.687 59.7859C954.033 59.7859 946.405 66.5665 944.074 78.4324Z" fill="white"/>
</svg>
