<svg width="368" height="90" viewBox="0 0 368 90" fill="none" xmlns="http://www.w3.org/2000/svg">
<path d="M0.728 73V9.896C3.48 11.624 6.296 13.224 9.048 14.952C18.264 20.584 26.648 27.24 31.768 36.968L32.344 37.992L32.92 36.968C37.848 27.048 46.616 20.712 55.64 14.888C58.456 13.16 61.144 11.624 63.896 9.896V73H52.248V31.336L51.16 32.488C46.04 37.352 42.2 42.344 39.448 49C38.488 51.048 38.04 52.776 38.04 55.08V73H26.52V54.824C26.52 46.952 18.648 37.416 13.528 32.488L12.376 31.4V73H0.728ZM65.9555 87.656V75.304C69.9235 77.352 75.5555 77.736 79.5235 77.736C84.1315 77.736 94.1155 77.16 94.1155 70.696V62.632L93.7315 62.504C92.5155 61.928 91.4915 61.608 90.2755 61.288C89.0595 61.032 87.9715 60.776 86.7555 60.52C76.7075 58.472 65.6355 53.48 65.6355 42.024V21.544H77.3475V42.024C77.3475 42.856 77.6035 43.56 78.1155 44.2C79.3315 45.8 82.3395 46.952 85.3475 47.912C86.9475 48.36 88.4195 48.808 89.8915 49.128C90.5955 49.32 91.1715 49.448 91.6835 49.64H91.8115C92.0035 49.704 92.0675 49.704 92.2595 49.768H92.3235C92.3875 49.768 92.3875 49.768 92.4515 49.832H92.5795C92.6435 49.896 92.7715 49.896 92.9635 49.896L93.0915 49.96C93.2195 49.96 93.2835 49.96 93.3475 50.024L94.1155 50.216V21.544H105.764L105.7 70.696C105.7 81.448 96.8675 87.592 86.9475 88.936C84.4515 89.256 82.0195 89.448 79.5235 89.448C74.9155 89.448 70.3715 88.936 65.9555 87.656ZM163.542 67.816L163.222 67.944C156.822 70.44 150.23 71.976 143.382 72.68C142.038 72.872 140.694 73 139.35 73H133.142C119.062 73 107.606 61.416 107.606 47.208C107.606 33.128 119.126 21.544 133.142 21.544H149.27V33.128H133.142C125.462 33.128 119.126 39.528 119.126 47.208C119.126 53.352 123.03 58.792 128.79 60.648C130.262 61.16 131.67 61.288 133.206 61.352C133.654 61.416 134.166 61.416 134.678 61.416H134.806H134.87H135.446H135.51H135.574H135.638H135.766H135.894H135.958H136.022H136.086C147.094 61.416 157.59 58.472 167.126 53.352C172.63 50.408 184.406 42.728 187.35 37.032C187.414 36.84 187.542 36.584 187.734 36.136C187.926 35.752 187.99 35.368 187.99 34.984C187.99 34.664 187.798 34.408 187.478 34.152C187.222 33.96 187.094 33.896 186.902 33.832C185.494 33.256 184.022 32.936 182.486 32.936C174.678 32.936 164.694 37.992 164.694 47.272C164.694 48.616 165.014 50.024 165.462 51.24C161.878 52.968 158.486 54.568 154.838 55.784C153.75 53.16 153.11 50.472 153.11 47.656C153.11 40.744 155.35 34.92 160.214 30.056C165.206 25.064 175.19 21.608 182.166 21.288H182.55C190.742 21.288 199.638 25.96 199.638 34.856C199.638 45.864 187.286 54.44 178.646 60.072L176.854 61.224H199.062V72.872C194.454 72.872 190.102 73.128 185.494 73.128C177.75 73.128 170.134 72.552 163.862 68.008L163.542 67.816ZM217.138 9L225.33 0.807999L233.522 9L225.33 17.256L217.138 9ZM219.442 58.664V21.544H231.154V58.664H219.442ZM201.138 73V4.77599H212.85V61.352H231.154V73H201.138ZM290.223 58.664V21.544H301.679V29.352L302.831 28.008C306.415 23.656 310.127 21.8 315.759 21.8C315.823 21.8 315.823 21.864 316.015 21.864C317.359 22.056 318.511 22.248 319.727 22.696C325.039 24.744 328.111 29.864 330.159 35.112L330.671 36.648L331.311 35.176C334.575 27.944 339.631 21.224 347.951 21.224C365.807 21.224 367.727 51.88 367.727 65.704C367.727 68.136 367.663 70.568 367.535 73H355.887C356.015 70.44 356.079 67.88 356.079 65.384C356.079 56.616 355.439 47.4 352.623 38.952C351.983 36.968 350.575 32.872 347.951 32.872C344.815 32.872 342.255 38.888 340.207 44.328C337.327 52.2 334.767 61.992 334.447 70.376C334.383 71.336 334.383 72.168 334.319 73H322.799C322.927 70.76 322.991 68.584 322.991 66.408C322.991 57.64 322.415 47.976 319.535 39.464C318.831 37.416 317.359 33.448 314.799 33.448C309.167 33.448 304.239 53.864 303.215 58.664H290.223ZM274.543 73V65.256L273.455 66.344C268.847 70.696 263.215 72.872 257.007 72.872C241.135 72.872 234.671 57.128 234.671 42.984V21.544H246.191V42.984C246.191 49.32 247.983 61.224 257.007 61.224C273.455 61.224 274.543 33 274.543 21.544H286.063V61.352H302.639C301.871 65.192 301.423 69.096 301.295 73H274.543Z" fill="#C2DC19"/>
</svg>
